C:\GBW_MyPrograms\KinderuniversiteitApp\Resultaten\New_group\test5_v1.mot
version=1
nRows=16
nColumns=31
inDegrees=yes
endheader
                time	         pelvis_tilt	           pelvis_tx	           pelvis_ty	       hip_flexion_r	        knee_angle_r	       ankle_angle_r	       hip_flexion_l	        knee_angle_l	       ankle_angle_l	    lumbar_extension	          arm_flex_r	          arm_flex_l	hamstrings_r/activation	bifemsh_r/activation	glut_max_r/activation	iliopsoas_r/activation	rect_fem_r/activation	  vasti_r/activation	gastroc_r/activation	 soleus_r/activation	tib_ant_r/activation	hamstrings_l/activation	bifemsh_l/activation	glut_max_l/activation	iliopsoas_l/activation	rect_fem_l/activation	  vasti_l/activation	gastroc_l/activation	 soleus_l/activation	tib_ant_l/activation	
          0.32752405	         -1.66672906	          0.43560699	          0.66639407	        -12.14473853	        -17.89602757	         -8.89776282	         33.52684471	        -34.44555691	         -2.96286310	         -2.68984021	         -4.02761786	         -4.02761470	          0.35250705	          0.62891610	          0.35460663	          0.85124740	          0.70862277	          0.38304837	          0.64851229	          0.78349336	          0.26960289	          0.48949830	          0.59125991	          0.52416989	          0.58236122	          0.60003380	          0.61526999	          0.40911629	          0.12700061	          0.82222124	
          0.33407453	         -1.63793095	          0.44600879	          0.66604115	        -12.55751299	        -18.38321041	        -11.24183580	         32.87432936	        -33.30526129	         -2.98894759	         -2.46465403	         -4.37793490	         -4.37793173	          0.36525282	          0.64315243	          0.33328234	          0.86421530	          0.69692007	          0.35018338	          0.63702952	          0.74974784	          0.25605207	          0.53474639	          0.58416062	          0.54554567	          0.55358116	          0.58746032	          0.64520748	          0.39753097	          0.12388646	          0.84244727	
          0.34062501	         -1.61095971	          0.45651857	          0.66558148	        -12.83374775	        -19.08136368	        -13.71277078	         32.18402408	        -32.63955154	         -2.84488683	         -2.21947899	         -4.74940816	         -4.74940501	          0.40501633	          0.65696359	          0.31904661	          0.87088624	          0.67062433	          0.31983578	          0.62207500	          0.70975154	          0.25137512	          0.60775579	          0.57928126	          0.58333854	          0.52329921	          0.57056235	          0.68571527	          0.39390288	          0.12574585	          0.83910346	
          0.34717549	         -1.58565653	          0.46710596	          0.66501280	        -12.97609946	        -19.98524413	        -16.27225260	         31.44113283	        -32.53816494	         -2.38626259	         -1.95926738	         -5.13557071	         -5.13556756	          0.46431311	          0.67110838	          0.29227683	          0.86268471	          0.63271595	          0.29189871	          0.60717406	          0.66843808	          0.30002547	          0.67983726	          0.57122051	          0.66235887	          0.49097328	          0.54461023	          0.73306981	          0.41626752	          0.16155126	          0.79768520	
          0.35372597	         -1.56281319	          0.47771608	          0.66434576	        -12.98814729	        -21.09537491	        -18.77809641	         30.59212841	        -32.82945708	         -1.34413268	         -1.69193727	         -5.52514199	         -5.52513889	          0.52082486	          0.68830743	          0.28247419	          0.84425512	          0.59509268	          0.26737288	          0.59608766	          0.62942314	          0.38716732	          0.72786617	          0.55881434	          0.74972953	          0.45179786	          0.52773933	          0.79964623	          0.41560467	          0.17339422	          0.78273150	
          0.36027646	         -1.53925231	          0.48825261	          0.66362055	        -12.88702385	        -22.36941367	        -20.92817208	         29.57142897	        -32.90907457	         -0.14301998	         -1.43693722	         -5.89748138	         -5.89747829	          0.51588301	          0.69904118	          0.26863431	          0.85337364	          0.57552835	          0.24357509	          0.59369385	          0.59733687	          0.35462304	          0.71780315	          0.54339323	          0.80319510	          0.41902788	          0.52185115	          0.84333905	          0.41698962	          0.18169620	          0.75792501	
          0.36682694	         -1.52218419	          0.49857605	          0.66289491	        -12.66777026	        -23.70900066	        -22.22825469	         28.52295129	        -32.89204209	          0.94034896	         -1.20855648	         -6.22537938	         -6.22537637	          0.49874200	          0.70975229	          0.25139188	          0.86859756	          0.59667169	          0.22138019	          0.58150941	          0.55110857	          0.36651851	          0.69952380	          0.53480547	          0.81202381	          0.40757187	          0.53248855	          0.86660666	          0.41225615	          0.17792961	          0.74749208	
          0.37337742	         -1.51205061	          0.50859244	          0.66225443	        -12.30491265	        -25.09906203	        -22.76089237	         27.58129708	        -32.99770884	          2.00268085	         -1.02124494	         -6.48959344	         -6.48959048	          0.47742026	          0.70897144	          0.23680359	          0.88110201	          0.63666304	          0.20276719	          0.57147315	          0.51405242	          0.49858323	          0.67233544	          0.52673856	          0.79815032	          0.40214153	          0.55644666	          0.87713267	          0.40643469	          0.17409228	          0.74259051	
          0.37992790	         -1.50740181	          0.51827688	          0.66175610	        -11.77989034	        -26.58519968	        -22.85988795	         26.77846317	        -33.26825635	          2.98872796	         -0.88020281	         -6.68477611	         -6.68477323	          0.46381736	          0.71724767	          0.22248509	          0.88972368	          0.64618869	          0.18439773	          0.56461598	          0.47748333	          0.55571253	          0.65395001	          0.52753046	          0.77871304	          0.41003253	          0.56780094	          0.87539330	          0.40132216	          0.17134100	          0.73775469	
          0.38647838	         -1.50343260	          0.52765527	          0.66141944	        -11.09923398	        -28.18284326	        -22.59979954	         26.07110232	        -33.64154493	          3.89479669	         -0.78632944	         -6.81538699	         -6.81538420	          0.44945576	          0.72668306	          0.21197545	          0.89417152	          0.65463634	          0.16794763	          0.55703109	          0.44269186	          0.62538100	          0.63777746	          0.53243067	          0.75642894	          0.41831327	          0.57746179	          0.86411465	          0.39599752	          0.16807462	          0.73492331	
          0.39302886	         -1.50338613	          0.53676701	          0.66123233	        -10.26579002	        -29.89041995	        -22.16361635	         25.41303498	        -34.04202751	          4.73857823	         -0.72901220	         -6.89044518	         -6.89044248	          0.43616542	          0.72951226	          0.20019444	          0.89261211	          0.66018783	          0.15396976	          0.55207807	          0.41114703	          0.66254438	          0.62957097	          0.53777846	          0.74333762	          0.42389021	          0.57978952	          0.85216756	          0.39329519	          0.16397360	          0.73209220	
          0.39957934	         -1.51181318	          0.54564740	          0.66116813	         -9.28345503	        -31.70188980	        -21.57285660	         24.77415919	        -34.41850950	          5.53647463	         -0.69697595	         -6.91841041	         -6.91840784	          0.42174656	          0.73386107	          0.19259060	          0.89059226	          0.66382492	          0.14177067	          0.54626613	          0.38070735	          0.70369971	          0.62324420	          0.54273833	          0.73141929	          0.43264790	          0.58206717	          0.84286686	          0.39474479	          0.15941185	          0.72715145	
          0.40612982	         -1.52514274	          0.55432610	          0.66120622	         -8.16645132	        -33.60111308	        -20.90202098	         24.13088312	        -34.74346183	          6.29650128	         -0.68954771	         -6.90483128	         -6.90482882	          0.40661675	          0.73616008	          0.18666715	          0.88779856	          0.66903451	          0.13159564	          0.54207478	          0.35359313	          0.72726123	          0.61843693	          0.54674654	          0.72206312	          0.44008001	          0.58323146	          0.83449821	          0.39654802	          0.15605772	          0.72345098	
          0.41268030	         -1.54035227	          0.56282612	          0.66132522	         -6.92726447	        -35.57345062	        -20.20698280	         23.47186770	        -35.00669191	          7.01805517	         -0.70659808	         -6.85399162	         -6.85398931	          0.39101625	          0.73821591	          0.18145275	          0.88597179	          0.67650700	          0.12292873	          0.53883074	          0.32763248	          0.74676895	          0.61037753	          0.54838369	          0.71675544	          0.44643577	          0.58579179	          0.82857884	          0.40160846	          0.15698933	          0.71693517	
          0.41923078	         -1.55697287	          0.57116504	          0.66150329	         -5.57476592	        -37.60418471	        -19.47783041	         22.79467011	        -35.20575474	          7.68818931	         -0.74592395	         -6.76961665	         -6.76961446	          0.37696655	          0.73939905	          0.17253673	          0.88269130	          0.68548365	          0.11620824	          0.53620553	          0.30486124	          0.75551725	          0.60416520	          0.55047892	          0.71069570	          0.45024742	          0.58701672	          0.82385770	          0.40746399	          0.16960848	          0.71051271	
          0.42578127	         -1.57679013	          0.57935585	          0.66172183	         -4.11368590	        -39.67477401	        -18.74977228	         22.10274796	        -35.34180105	          8.28380661	         -0.80344826	         -6.65495126	         -6.65494924	          0.36148615	          0.73651703	          0.17104254	          0.88165853	          0.70188993	          0.11047374	          0.53567424	          0.28496002	          0.75514456	          0.58953609	          0.54868754	          0.70605491	          0.45584841	          0.59481269	          0.82250399	          0.41220772	          0.19128743	          0.70485947	
